<?xml version="1.0" encoding="UTF-8" standalone="no"?>
<!-- Created with Inkscape (http://www.inkscape.org/) -->

<svg
   xmlns:dc="http://purl.org/dc/elements/1.1/"
   xmlns:cc="http://creativecommons.org/ns#"
   xmlns:rdf="http://www.w3.org/1999/02/22-rdf-syntax-ns#"
   xmlns:svg="http://www.w3.org/2000/svg"
   xmlns="http://www.w3.org/2000/svg"
   xmlns:sodipodi="http://sodipodi.sourceforge.net/DTD/sodipodi-0.dtd"
   xmlns:inkscape="http://www.inkscape.org/namespaces/inkscape"
   width="32.241936mm"
   height="7.6116676mm"
   viewBox="0 0 32.241936 7.6116676"
   version="1.1"
   id="svg1805"
   inkscape:version="0.92.4 5da689c313, 2019-01-14"
   sodipodi:docname="logo_netherlands_escience_center.svg">
  <defs
     id="defs1799" />
  <sodipodi:namedview
     id="base"
     pagecolor="#ffffff"
     bordercolor="#666666"
     borderopacity="1.0"
     inkscape:pageopacity="0.0"
     inkscape:pageshadow="2"
     inkscape:zoom="1.4"
     inkscape:cx="67.255242"
     inkscape:cy="-174.32004"
     inkscape:document-units="mm"
     inkscape:current-layer="layer1"
     showgrid="false"
     fit-margin-top="0"
     fit-margin-left="0"
     fit-margin-right="0"
     fit-margin-bottom="0"
     inkscape:window-width="1920"
     inkscape:window-height="1031"
     inkscape:window-x="0"
     inkscape:window-y="0"
     inkscape:window-maximized="1" />
  <metadata
     id="metadata1802">
    <rdf:RDF>
      <cc:Work
         rdf:about="">
        <dc:format>image/svg+xml</dc:format>
        <dc:type
           rdf:resource="http://purl.org/dc/dcmitype/StillImage" />
        <dc:title></dc:title>
      </cc:Work>
    </rdf:RDF>
  </metadata>
  <g
     inkscape:label="Layer 1"
     inkscape:groupmode="layer"
     id="layer1"
     transform="translate(132.53763,-35.414404)">
    <g
       transform="matrix(0.26458333,0,0,0.26458333,-214.16353,34.900257)"
       id="g1766">
      <path
         d="m 386.15637,23.023797 c -0.0235,0.387424 -0.10064,0.765767 -0.22474,1.135031 -0.12409,0.37002 -0.30116,0.697666 -0.52287,0.984451 -0.33975,0.426015 -0.79225,0.786198 -1.35976,1.088117 -0.57055,0.298135 -1.22962,0.448715 -1.97723,0.448715 -0.75063,0 -1.41879,-0.153607 -2.00749,-0.460822 -0.58795,-0.304189 -1.04877,-0.665129 -1.38625,-1.07601 -0.36321,-0.46385 -0.62957,-0.992774 -0.80663,-1.592828 -0.17404,-0.600053 -0.2603,-1.256858 -0.2603,-1.968901 0,-0.712043 0.0863,-1.368848 0.2603,-1.968145 0.17706,-0.600053 0.44342,-1.129735 0.80663,-1.593584 0.33748,-0.410882 0.7983,-0.768795 1.38625,-1.07601 0.5887,-0.307215 1.25686,-0.460823 2.00749,-0.460823 0.74761,0 1.40668,0.150581 1.97723,0.451743 0.56751,0.298891 1.02001,0.662101 1.35976,1.08509 0.22171,0.289811 0.39878,0.617457 0.52287,0.984451 0.1241,0.369263 0.20128,0.747607 0.22474,1.135031 h -2.30563 c -0.0113,-0.174795 -0.0439,-0.336726 -0.0916,-0.488063 -0.053,-0.150581 -0.11501,-0.286785 -0.18917,-0.410882 -0.13847,-0.212629 -0.33067,-0.386667 -0.58189,-0.525898 -0.24819,-0.136204 -0.55617,-0.206576 -0.91635,-0.206576 -0.32538,0 -0.60308,0.05599 -0.83387,0.167985 -0.23306,0.112747 -0.42828,0.257274 -0.59097,0.432069 -0.28679,0.313268 -0.46991,0.688586 -0.54406,1.122924 -0.0734,0.440393 -0.11199,0.889865 -0.11199,1.350688 0,0.463849 0.0386,0.910295 0.11199,1.342364 0.0742,0.428285 0.25727,0.800575 0.54406,1.113844 0.16269,0.174795 0.35791,0.322349 0.59097,0.440392 0.23079,0.118044 0.50849,0.177822 0.83387,0.177822 0.36018,0 0.66816,-0.0681 0.91635,-0.207333 0.25122,-0.136203 0.44342,-0.310241 0.58189,-0.522871 0.0742,-0.127123 0.13621,-0.263327 0.18917,-0.413908 0.0477,-0.150581 0.0802,-0.310242 0.0916,-0.488063 h 2.30563"
         style="fill:#231f20;fill-opacity:1;fill-rule:nonzero;stroke:none;stroke-width:1.33333325"
         id="path14-6"
         inkscape:connector-curvature="0" />
      <path
         d="m 395.91991,21.676136 c -0.0121,0.08551 -0.0182,0.168741 -0.0182,0.24214 v 0.413908 h -6.52038 c 0,0.37229 0.056,0.730204 0.17707,1.06693 0.1188,0.337482 0.29586,0.618213 0.53195,0.84295 0.17782,0.162688 0.37834,0.304188 0.60913,0.422231 0.23382,0.1188 0.51152,0.177822 0.8369,0.177822 0.33673,0 0.61443,-0.03254 0.83311,-0.100639 0.21869,-0.07113 0.41391,-0.192199 0.58795,-0.366994 0.22776,-0.223979 0.38137,-0.499414 0.47066,-0.824033 h 2.24888 c -0.0265,0.286785 -0.12107,0.60308 -0.28982,0.94586 -0.16798,0.342779 -0.34883,0.629564 -0.53497,0.851273 -0.41391,0.487307 -0.90727,0.839167 -1.48084,1.051796 -0.57281,0.21036 -1.17287,0.316296 -1.80016,0.316296 -0.67345,0 -1.25913,-0.108963 -1.74946,-0.327646 -0.49639,-0.216413 -0.93376,-0.508494 -1.32118,-0.869434 -0.48806,-0.475957 -0.86035,-1.043472 -1.11763,-1.705574 -0.25727,-0.662102 -0.3844,-1.394576 -0.3844,-2.192881 0,-0.789225 0.11578,-1.516402 0.34884,-2.184557 0.23079,-0.668156 0.58265,-1.238698 1.0586,-1.713898 0.36019,-0.376074 0.80058,-0.674209 1.32118,-0.898945 0.51757,-0.224736 1.1146,-0.339753 1.78805,-0.339753 0.72415,0 1.40139,0.147554 2.0249,0.440392 0.62351,0.295109 1.13806,0.747608 1.53683,1.359768 0.36397,0.538005 0.594,1.084334 0.69464,1.640499 0.0976,0.555409 0.14831,1.140328 0.14831,1.752489 z m -2.34119,-1.049526 c -0.0121,-0.712043 -0.21263,-1.279559 -0.60005,-1.705574 -0.16269,-0.174038 -0.367,-0.313269 -0.60914,-0.413152 -0.24516,-0.09761 -0.53497,-0.151337 -0.8717,-0.151337 -0.36397,0 -0.68329,0.07113 -0.95797,0.207332 -0.27165,0.138474 -0.49638,0.319323 -0.67345,0.544059 -0.17479,0.212629 -0.29889,0.437365 -0.37607,0.673452 -0.0734,0.23987 -0.11805,0.520601 -0.1294,0.84522 h 4.21778"
         style="fill:#231f20;fill-opacity:1;fill-rule:nonzero;stroke:none;stroke-width:1.33333325"
         id="path16-7"
         inkscape:connector-curvature="0" />
      <path
         d="M 403.51025,26.473536 V 20.49419 c 0,-0.57357 -0.11275,-1.023042 -0.33749,-1.348418 -0.22398,-0.324619 -0.64999,-0.487307 -1.2735,-0.487307 -0.41088,0 -0.75669,0.115017 -1.03137,0.345807 -0.27543,0.233059 -0.49411,0.528924 -0.6568,0.889864 -0.16193,0.36321 -0.25425,0.786199 -0.28073,1.264425 -0.0235,0.48201 -0.0378,0.928456 -0.0378,1.342364 v 3.972611 h -2.34119 v -9.745381 h 1.96815 l 0.16874,1.256102 c 0.28678,-0.514548 0.69464,-0.889865 1.22659,-1.135032 0.53195,-0.24214 1.07903,-0.366237 1.6405,-0.366237 0.52287,0 0.9905,0.08853 1.39533,0.262571 0.40785,0.174795 0.75063,0.416935 1.03136,0.72188 0.28073,0.307215 0.49639,0.676479 0.64773,1.105521 0.14755,0.431312 0.22398,0.898188 0.22398,1.397602 v 6.502974 h -2.34346"
         style="fill:#231f20;fill-opacity:1;fill-rule:nonzero;stroke:none;stroke-width:1.33333325"
         id="path18-5"
         inkscape:connector-curvature="0" />
      <path
         d="m 413.57495,26.343385 c -0.67421,0.174795 -1.34539,0.260301 -2.00749,0.260301 -0.98445,0 -1.72298,-0.263327 -2.21104,-0.795279 -0.48428,-0.531951 -0.73021,-1.265182 -0.73021,-2.201961 v -4.947981 h -1.77897 v -1.93031 h 1.77897 v -2.474369 l 2.34422,-0.581893 v 3.056262 h 2.45318 v 1.93031 h -2.45318 v 4.740649 c 0,0.376073 0.0855,0.647724 0.26333,0.816466 0.17404,0.167984 0.44947,0.25349 0.82479,0.25349 0.24819,0 0.48125,-0.0053 0.69993,-0.02043 0.21869,-0.01135 0.49109,-0.03556 0.81647,-0.07416 v 1.968901"
         style="fill:#231f20;fill-opacity:1;fill-rule:nonzero;stroke:none;stroke-width:1.33333325"
         id="path20-3"
         inkscape:connector-curvature="0" />
      <path
         d="m 423.057,21.676136 c -0.0121,0.08551 -0.0182,0.168741 -0.0182,0.24214 v 0.413908 h -6.5234 c 0,0.37229 0.059,0.730204 0.18085,1.06693 0.11804,0.337482 0.2951,0.618213 0.53195,0.84295 0.17404,0.162688 0.37834,0.304188 0.60837,0.422231 0.23382,0.1188 0.51153,0.177822 0.8369,0.177822 0.33673,0 0.61443,-0.03254 0.83311,-0.100639 0.21869,-0.07113 0.41391,-0.192199 0.59173,-0.366994 0.22474,-0.223979 0.38137,-0.499414 0.46688,-0.824033 h 2.24888 c -0.0265,0.286785 -0.12107,0.60308 -0.28906,0.94586 -0.16874,0.342779 -0.34581,0.629564 -0.53498,0.851273 -0.41088,0.487307 -0.90802,0.839167 -1.48083,1.051796 -0.57357,0.21036 -1.17363,0.316296 -1.79714,0.316296 -0.67723,0 -1.26215,-0.108963 -1.75627,-0.327646 -0.49033,-0.216413 -0.93073,-0.508494 -1.32118,-0.869434 -0.48428,-0.475957 -0.85732,-1.043472 -1.11384,-1.705574 -0.25425,-0.662102 -0.3844,-1.394576 -0.3844,-2.192881 0,-0.789225 0.11502,-1.516402 0.34883,-2.184557 0.23004,-0.668156 0.5819,-1.238698 1.05785,-1.713898 0.36094,-0.376074 0.80134,-0.674209 1.32118,-0.898945 0.51757,-0.224736 1.1146,-0.339753 1.78805,-0.339753 0.72491,0 1.40139,0.147554 2.0249,0.440392 0.62351,0.295109 1.13806,0.747608 1.53759,1.359768 0.36321,0.538005 0.594,1.084334 0.69464,1.640499 0.0969,0.555409 0.14755,1.140328 0.14755,1.752489 z m -2.34119,-1.049526 c -0.0144,-0.712043 -0.21263,-1.279559 -0.60005,-1.705574 -0.16269,-0.174038 -0.36624,-0.313269 -0.60914,-0.413152 -0.24516,-0.09761 -0.53497,-0.151337 -0.8717,-0.151337 -0.36321,0 -0.67951,0.07113 -0.95797,0.207332 -0.27467,0.138474 -0.49941,0.319323 -0.67345,0.544059 -0.17479,0.212629 -0.29889,0.437365 -0.37229,0.673452 -0.0772,0.23987 -0.12183,0.520601 -0.13318,0.84522 h 4.21778"
         style="fill:#231f20;fill-opacity:1;fill-rule:nonzero;stroke:none;stroke-width:1.33333325"
         id="path22-5"
         inkscape:connector-curvature="0" />
      <path
         d="m 430.36661,18.900605 c -0.28679,-0.06205 -0.55541,-0.09156 -0.80436,-0.09156 -0.82404,0 -1.45133,0.260301 -1.87356,0.786199 -0.42602,0.522871 -0.63865,1.182702 -0.63865,1.968901 v 4.90939 h -2.36162 v -9.745381 h 1.98631 l 0.20733,1.460407 c 0.22398,-0.561462 0.59703,-0.967047 1.11384,-1.218267 0.5206,-0.248194 1.06391,-0.37229 1.6405,-0.37229 0.23685,0 0.48201,0.01816 0.73021,0.05599 v 2.246605"
         style="fill:#231f20;fill-opacity:1;fill-rule:nonzero;stroke:none;stroke-width:1.33333325"
         id="path24-6"
         inkscape:connector-curvature="0" />
      <path
         d="m 309.59774,18.951303 c -0.16193,-0.174794 -0.36321,-0.314025 -0.60838,-0.413908 -0.14226,-0.05902 -0.30797,-0.09459 -0.48201,-0.1188 v 2.237526 h 1.69347 c -0.0144,-0.712043 -0.21263,-1.279559 -0.60308,-1.704818"
         style="fill:#00adef;fill-opacity:1;fill-rule:nonzero;stroke:none;stroke-width:1.33333325"
         id="path26-2"
         inkscape:connector-curvature="0" />
      <path
         d="m 371.64083,19.137449 c -0.17479,0.212629 -0.29889,0.437365 -0.37305,0.676478 -0.0764,0.236844 -0.12107,0.517575 -0.13242,0.842194 h 1.71995 v -2.231472 c -0.19522,0.03254 -0.37531,0.08853 -0.538,0.171768 -0.27468,0.135447 -0.50244,0.316295 -0.67648,0.541032"
         style="fill:#00adef;fill-opacity:1;fill-rule:nonzero;stroke:none;stroke-width:1.33333325"
         id="path28-9"
         inkscape:connector-curvature="0" />
      <path
         d="m 344.3524,18.537395 c -0.24516,-0.09761 -0.53498,-0.148311 -0.8717,-0.148311 -0.36397,0 -0.68329,0.0681 -0.95797,0.207333 -0.27468,0.135447 -0.49941,0.316295 -0.67421,0.541032 -0.17404,0.212629 -0.30116,0.437365 -0.37531,0.676478 -0.0734,0.236844 -0.11805,0.517575 -0.1294,0.842194 h 4.21778 c -0.0121,-0.712043 -0.21263,-1.279559 -0.60005,-1.704818 -0.16269,-0.174794 -0.367,-0.314025 -0.60914,-0.413908"
         style="fill:#00adef;fill-opacity:1;fill-rule:nonzero;stroke:none;stroke-width:1.33333325"
         id="path30-1"
         inkscape:connector-curvature="0" />
      <path
         d="m 370.27198,25.551133 c -0.48806,-0.475956 -0.86035,-1.043472 -1.1146,-1.705574 -0.25727,-0.662101 -0.38364,-1.394575 -0.38364,-2.195907 0,-0.786199 0.11502,-1.513376 0.34581,-2.184558 0.23003,-0.668155 0.58492,-1.238697 1.06087,-1.713897 0.36019,-0.376074 0.80058,-0.674209 1.32118,-0.898945 0.4018,-0.177065 0.85733,-0.280731 1.35371,-0.319322 v -6.198029 h -64.34796 v 6.198029 c 0.58492,0.04162 1.13806,0.177821 1.65563,0.419961 0.62351,0.295865 1.1373,0.747608 1.53684,1.359768 0.36321,0.538005 0.594,1.084333 0.69463,1.640499 0.0976,0.558435 0.14756,1.141085 0.14756,1.752489 -0.0121,0.08853 -0.0174,0.171768 -0.0174,0.245166 v 0.410882 h -4.01725 v 2.494799 c 0.18009,-0.0174 0.34581,-0.04086 0.48201,-0.08248 0.21868,-0.07113 0.41693,-0.192198 0.59097,-0.366993 0.22474,-0.22398 0.38137,-0.499414 0.46991,-0.824033 h 2.24963 c -0.0242,0.286784 -0.12107,0.602323 -0.29284,0.945859 -0.16571,0.34278 -0.34581,0.629565 -0.53195,0.854301 -0.41391,0.487307 -0.90727,0.83614 -1.48084,1.048769 -0.47898,0.177822 -0.97537,0.275434 -1.48689,0.304945 v 3.97488 h 64.34796 V 26.73081 c -0.4699,-0.04162 -0.88986,-0.145284 -1.26215,-0.307216 -0.49336,-0.219439 -0.93375,-0.511521 -1.32118,-0.872461 z m -46.63996,-1.389278 c -0.20355,0.452499 -0.4699,0.839923 -0.79452,1.164542 -0.51152,0.511521 -1.13503,0.877758 -1.86523,1.097197 -0.73323,0.218683 -1.51035,0.327646 -2.33514,0.327646 -0.7128,0 -1.41576,-0.103666 -2.1104,-0.310242 -0.69162,-0.206576 -1.31588,-0.558435 -1.86524,-1.057849 -0.39953,-0.363967 -0.7302,-0.810413 -0.99353,-1.342364 -0.26257,-0.531952 -0.39272,-1.114601 -0.39272,-1.752489 h 2.47361 c 0,0.324619 0.0651,0.629564 0.19825,0.910295 0.13015,0.280732 0.29587,0.519845 0.49639,0.721124 0.28679,0.286784 0.63259,0.478983 1.04045,0.570542 0.40482,0.09459 0.80436,0.141501 1.19178,0.141501 0.46082,0 0.89819,-0.05297 1.3121,-0.159661 0.41088,-0.105936 0.74155,-0.289055 0.99277,-0.552382 0.14831,-0.162688 0.27543,-0.333699 0.37532,-0.517575 0.10064,-0.180091 0.14831,-0.431312 0.14831,-0.756687 0,-0.487307 -0.15664,-0.854301 -0.47596,-1.099468 -0.31932,-0.24214 -0.68556,-0.401801 -1.09644,-0.475956 -0.4525,-0.08853 -0.94586,-0.150581 -1.48386,-0.189172 -0.53498,-0.03556 -1.02305,-0.09459 -1.46041,-0.167985 -0.46385,-0.07416 -0.89819,-0.207332 -1.30377,-0.393477 -0.40786,-0.186145 -0.76199,-0.434339 -1.06996,-0.741554 -0.30419,-0.304945 -0.54936,-0.674209 -0.7302,-1.105521 -0.1801,-0.432069 -0.27165,-0.922402 -0.27165,-1.472514 0,-0.522871 0.10669,-1.004881 0.31932,-1.442247 0.21263,-0.437365 0.49336,-0.830843 0.84219,-1.181946 0.43737,-0.437366 0.99959,-0.780902 1.68817,-1.032122 0.68859,-0.248194 1.42484,-0.375317 2.21407,-0.375317 0.71204,0 1.39457,0.10972 2.05062,0.328402 0.65681,0.218683 1.20919,0.541032 1.66169,0.96629 0.39877,0.375318 0.72112,0.801333 0.96326,1.277289 0.24517,0.47293 0.37229,0.992775 0.3844,1.554237 h -2.47437 c -0.0113,-0.236087 -0.0704,-0.47293 -0.17706,-0.702963 -0.1067,-0.23079 -0.24214,-0.435095 -0.40181,-0.609134 -0.21565,-0.224736 -0.51454,-0.398774 -0.90197,-0.525898 -0.38666,-0.124096 -0.76198,-0.186145 -1.12595,-0.186145 -0.37532,0 -0.75971,0.04994 -1.15243,0.150581 -0.39348,0.10064 -0.72718,0.292838 -1.00261,0.578866 -0.13848,0.151338 -0.2482,0.314026 -0.32765,0.488064 -0.0825,0.177065 -0.1241,0.387424 -0.1241,0.638644 0,0.437366 0.12713,0.771065 0.37532,1.001855 0.25122,0.233816 0.5766,0.378343 0.97537,0.440392 0.42526,0.06205 0.90424,0.118043 1.43619,0.168741 0.52968,0.04994 1.01397,0.105937 1.45133,0.171012 0.50017,0.07415 0.9731,0.207332 1.41652,0.401801 0.44266,0.192198 0.83009,0.449472 1.16152,0.768795 0.33067,0.319322 0.594,0.703719 0.78922,1.153192 0.19447,0.448715 0.28906,0.957209 0.28906,1.518672 0,0.624267 -0.10291,1.161515 -0.31025,1.610988 z m 3.64799,-1.20843 c 0.0734,0.431312 0.25652,0.803602 0.54331,1.116871 0.16268,0.174794 0.36094,0.322349 0.59173,0.440392 0.23003,0.118043 0.50773,0.177821 0.83311,0.177821 0.36397,0 0.66815,-0.0681 0.91938,-0.207332 0.25122,-0.136204 0.44341,-0.313269 0.58264,-0.522871 0.0734,-0.127124 0.13545,-0.263327 0.18615,-0.413908 0.0499,-0.150581 0.0795,-0.313269 0.0946,-0.488064 h 2.30487 c -0.0235,0.387424 -0.0999,0.765768 -0.22398,1.135032 -0.1241,0.37002 -0.30192,0.697666 -0.52363,0.98445 -0.33975,0.426016 -0.79225,0.786199 -1.35977,1.088117 -0.57054,0.298135 -1.22962,0.448716 -1.98025,0.448716 -0.75063,0 -1.41879,-0.153608 -2.00371,-0.457796 -0.5887,-0.307215 -1.05255,-0.665128 -1.38928,-1.079037 -0.36396,-0.460822 -0.62956,-0.992774 -0.80738,-1.592827 -0.17404,-0.600054 -0.25955,-1.256858 -0.25955,-1.968902 0,-0.712043 0.0855,-1.368848 0.25955,-1.968901 0.17782,-0.599297 0.44342,-1.132005 0.80738,-1.595854 0.33673,-0.410882 0.80058,-0.771065 1.38928,-1.07601 0.58492,-0.307215 1.25308,-0.460823 2.00371,-0.460823 0.75063,0 1.40971,0.150581 1.98025,0.452499 0.56752,0.298135 1.02002,0.662102 1.35977,1.084334 0.22171,0.289811 0.39953,0.618214 0.52363,0.98445 0.12409,0.369264 0.20052,0.747608 0.22398,1.135032 h -2.30487 c -0.0151,-0.174795 -0.0446,-0.336726 -0.0946,-0.488064 -0.0507,-0.147554 -0.11275,-0.286784 -0.18615,-0.410881 -0.13923,-0.212629 -0.33142,-0.386667 -0.58264,-0.525898 -0.25123,-0.136204 -0.55541,-0.206576 -0.91938,-0.206576 -0.32538,0 -0.60308,0.05902 -0.83311,0.171012 -0.23079,0.112746 -0.42905,0.254247 -0.59173,0.429042 -0.28679,0.313268 -0.46991,0.688585 -0.54331,1.125951 -0.0742,0.437365 -0.11274,0.886838 -0.11274,1.350687 0,0.460823 0.0386,0.907269 0.11274,1.339338 z m 9.99358,3.552648 h -2.37978 v -9.748407 h 2.37978 z m 0.056,-11.099095 h -2.5122 v -2.417617 h 2.5122 z m 10.55504,6.543835 v 0.410882 h -6.5234 c 0,0.375317 0.059,0.73323 0.17706,1.069956 0.1188,0.337483 0.29889,0.618214 0.53498,0.84295 0.17479,0.164958 0.37834,0.304189 0.60913,0.422232 0.23079,0.1188 0.51152,0.177822 0.8369,0.177822 0.33673,0 0.61443,-0.03254 0.83311,-0.10064 0.21869,-0.07113 0.41391,-0.192198 0.59098,-0.366993 0.22473,-0.22398 0.38137,-0.499414 0.46763,-0.824033 h 2.24887 c -0.0234,0.286784 -0.12107,0.602323 -0.28981,0.945859 -0.16798,0.34278 -0.3458,0.629565 -0.53498,0.854301 -0.41088,0.487307 -0.90424,0.83614 -1.48083,1.048769 -0.57282,0.212629 -1.17287,0.319322 -1.80016,0.319322 -0.67345,0 -1.25913,-0.108963 -1.75249,-0.327646 -0.49336,-0.219439 -0.93375,-0.511521 -1.32118,-0.872461 -0.48806,-0.475956 -0.86035,-1.043472 -1.11763,-1.705574 -0.25424,-0.662101 -0.38364,-1.394575 -0.38364,-2.195907 0,-0.786199 0.11502,-1.513376 0.34808,-2.184558 0.23079,-0.668155 0.58568,-1.238697 1.05861,-1.713897 0.36321,-0.376074 0.8036,-0.674209 1.3242,-0.898945 0.51682,-0.227763 1.1146,-0.339753 1.78805,-0.339753 0.72415,0 1.40139,0.147554 2.0249,0.440392 0.62654,0.295865 1.13806,0.747608 1.53683,1.359768 0.36397,0.538005 0.594,1.084333 0.69464,1.640499 0.10064,0.558435 0.15058,1.141085 0.15058,1.752489 -0.0113,0.08853 -0.0204,0.171768 -0.0204,0.245166 z m 9.95801,4.55526 h -2.34346 v -5.979346 c 0,-0.576596 -0.11275,-1.026068 -0.33748,-1.351444 -0.22777,-0.324619 -0.65,-0.487307 -1.27654,-0.487307 -0.41088,0 -0.75668,0.115017 -1.03212,0.345806 -0.27468,0.23306 -0.49336,0.528925 -0.65605,0.892892 -0.15966,0.36321 -0.25424,0.783172 -0.28073,1.264425 -0.0234,0.48201 -0.0356,0.928456 -0.0356,1.342364 v 3.97261 h -2.34346 v -9.748407 h 1.96814 l 0.16874,1.256101 c 0.28679,-0.513791 0.69464,-0.892134 1.22659,-1.135031 0.53195,-0.245167 1.07904,-0.366237 1.6405,-0.366237 0.5259,0 0.99278,0.08853 1.39836,0.263327 0.40483,0.174038 0.75064,0.416179 1.03137,0.721124 0.28073,0.307215 0.49638,0.676478 0.64696,1.10779 0.14832,0.429042 0.22474,0.895919 0.22474,1.395333 z m 4.03163,-3.552648 c 0.0742,0.431312 0.25425,0.803602 0.54103,1.116871 0.16572,0.174794 0.36094,0.322349 0.59098,0.440392 0.23381,0.118043 0.51152,0.177821 0.83689,0.177821 0.36019,0 0.66816,-0.0681 0.91938,-0.207332 0.24819,-0.136204 0.44039,-0.313269 0.57887,-0.522871 0.0772,-0.127124 0.1362,-0.263327 0.18917,-0.413908 0.0477,-0.150581 0.0802,-0.313269 0.0916,-0.488064 h 2.30865 c -0.0265,0.387424 -0.10064,0.765768 -0.22776,1.135032 -0.1241,0.37002 -0.29814,0.697666 -0.52287,0.98445 -0.33976,0.426016 -0.79226,0.786199 -1.35977,1.088117 -0.57054,0.298135 -1.22962,0.448716 -1.97723,0.448716 -0.75063,0 -1.41879,-0.153608 -2.00673,-0.457796 -0.5887,-0.307215 -1.04953,-0.665128 -1.38625,-1.079037 -0.36397,-0.460822 -0.63259,-0.992774 -0.80739,-1.592827 -0.17706,-0.600054 -0.26333,-1.256858 -0.26333,-1.968902 0,-0.712043 0.0863,-1.368848 0.26333,-1.968901 0.1748,-0.599297 0.44342,-1.132005 0.80739,-1.595854 0.33672,-0.410882 0.79755,-0.771065 1.38625,-1.07601 0.58794,-0.307215 1.2561,-0.460823 2.00673,-0.460823 0.74761,0 1.40669,0.150581 1.97723,0.452499 0.56751,0.298135 1.02001,0.662102 1.35977,1.084334 0.22473,0.289811 0.39877,0.618214 0.52287,0.98445 0.12712,0.369264 0.20128,0.747608 0.22776,1.135032 h -2.30865 c -0.0113,-0.174795 -0.0439,-0.336726 -0.0916,-0.488064 -0.053,-0.147554 -0.11199,-0.286784 -0.18917,-0.410881 -0.13848,-0.212629 -0.33068,-0.386667 -0.57887,-0.525898 -0.25122,-0.136204 -0.55919,-0.206576 -0.91938,-0.206576 -0.32537,0 -0.60308,0.05902 -0.83689,0.171012 -0.23004,0.112746 -0.42526,0.254247 -0.59098,0.429042 -0.28678,0.313268 -0.46687,0.688585 -0.54103,1.125951 -0.0764,0.437365 -0.11501,0.886838 -0.11501,1.350687 0,0.460823 0.0386,0.907269 0.11501,1.339338"
         style="fill:#00adef;fill-opacity:1;fill-rule:nonzero;stroke:none;stroke-width:1.33333325"
         id="path32-2"
         inkscape:connector-curvature="0" />
      <path
         d="m 371.33286,23.431651 c 0.1188,0.337483 0.29586,0.618214 0.53195,0.84295 0.17782,0.164958 0.37834,0.304189 0.61216,0.422232 0.11275,0.05902 0.23911,0.103666 0.37834,0.133177 v -2.468315 h -1.70254 c 0,0.375317 0.062,0.73323 0.18009,1.069956"
         style="fill:#00adef;fill-opacity:1;fill-rule:nonzero;stroke:none;stroke-width:1.33333325"
         id="path34-7"
         inkscape:connector-curvature="0" />
      <path
         d="M 310.78044,7.106871 V 4.8277277 c 0,-0.2186828 -0.0446,-0.3896942 -0.13015,-0.513791 -0.0855,-0.1240968 -0.24517,-0.1861451 -0.48504,-0.1861451 -0.15663,0 -0.28905,0.043888 -0.39272,0.1324203 -0.10669,0.089289 -0.18917,0.2012789 -0.25122,0.3405095 -0.0621,0.1384738 -0.0976,0.2981349 -0.10669,0.4812533 -0.008,0.1838751 -0.0144,0.3548866 -0.0144,0.5115209 V 7.106871 h -0.89289 V 3.3915344 h 0.75063 l 0.0651,0.4789833 c 0.10972,-0.1952254 0.26333,-0.3397527 0.46688,-0.4313119 0.20127,-0.092316 0.41088,-0.1392306 0.62426,-0.1392306 0.20053,0 0.37835,0.032538 0.53498,0.1006395 0.15361,0.065075 0.28376,0.1566343 0.3897,0.2746776 0.10972,0.1150165 0.18917,0.2572738 0.24819,0.4199617 0.0568,0.1649579 0.0863,0.3427795 0.0863,0.5349782 V 7.106871 h -0.89289"
         style="fill:#231f20;fill-opacity:1;fill-rule:nonzero;stroke:none;stroke-width:1.33333325"
         id="path36-0"
         inkscape:connector-curvature="0" />
      <path
         d="m 315.73145,5.2772002 c -0.006,0.035564 -0.006,0.065075 -0.006,0.094586 v 0.1566344 h -2.48874 c 0,0.1422573 0.0235,0.2777044 0.0681,0.4078546 0.0439,0.1271236 0.11199,0.2368433 0.20355,0.322349 0.0681,0.062048 0.14528,0.1150165 0.23382,0.1596611 0.0855,0.044645 0.19219,0.068102 0.31629,0.068102 0.13015,0 0.23609,-0.012107 0.31932,-0.038591 0.0825,-0.026484 0.15966,-0.074155 0.22474,-0.1392305 0.0855,-0.085506 0.14453,-0.191442 0.18009,-0.3155388 h 0.85733 c -0.0121,0.108963 -0.0477,0.2300331 -0.11275,0.3601834 -0.0651,0.133177 -0.13242,0.2391133 -0.20355,0.3253757 -0.15663,0.1861451 -0.3458,0.3193222 -0.56449,0.4018011 -0.21868,0.079452 -0.44644,0.1210701 -0.68631,0.1210701 -0.25652,0 -0.47823,-0.041618 -0.6674,-0.1271236 -0.18615,-0.082479 -0.35791,-0.1921986 -0.50244,-0.3306725 -0.1869,-0.1808484 -0.3284,-0.3995311 -0.42602,-0.6507514 -0.0976,-0.2512203 -0.14755,-0.5319515 -0.14755,-0.8361399 0,-0.2988916 0.0439,-0.576596 0.13318,-0.8308431 0.0885,-0.2572738 0.22171,-0.4729298 0.40482,-0.6560482 0.13545,-0.1415006 0.30419,-0.2572738 0.50245,-0.3427795 0.19825,-0.085506 0.42525,-0.1271236 0.68253,-0.1271236 0.27468,0 0.53195,0.055995 0.77182,0.1687414 0.23911,0.1119898 0.43131,0.2837579 0.58492,0.5168177 0.13923,0.2043056 0.22776,0.4139081 0.26333,0.6235106 0.0386,0.213386 0.059,0.4381222 0.059,0.6681553 z m -0.89289,-0.3987745 c -0.006,-0.2724075 -0.0825,-0.4880635 -0.23079,-0.6507514 -0.062,-0.064318 -0.13848,-0.1180432 -0.23004,-0.1566343 -0.0916,-0.037834 -0.2043,-0.055995 -0.33143,-0.055995 -0.13847,0 -0.25954,0.023457 -0.36623,0.077182 -0.10367,0.052968 -0.18917,0.1210701 -0.25728,0.2065758 -0.0681,0.083236 -0.11501,0.1687413 -0.1415,0.2572738 -0.0295,0.091559 -0.0446,0.1982522 -0.0507,0.3223489 h 1.60797"
         style="fill:#231f20;fill-opacity:1;fill-rule:nonzero;stroke:none;stroke-width:1.33333325"
         id="path38-9"
         inkscape:connector-curvature="0" />
      <path
         d="m 318.48882,7.0569296 c -0.25652,0.068102 -0.51077,0.1006395 -0.76501,0.1006395 -0.37532,0 -0.65681,-0.1006395 -0.84295,-0.3049452 -0.18615,-0.2005222 -0.27771,-0.4812533 -0.27771,-0.8391666 V 4.1277916 h -0.6795 V 3.3915344 h 0.6795 V 2.4487016 l 0.89289,-0.2217095 v 1.1645423 h 0.93678 v 0.7362572 h -0.93678 v 1.8084835 c 0,0.1422573 0.0325,0.2459235 0.10064,0.310242 0.0651,0.065075 0.17101,0.097613 0.31327,0.097613 0.0946,0 0.18615,-0.00303 0.26863,-0.00832 0.0832,-0.00303 0.18614,-0.015134 0.31024,-0.027241 v 0.7483641"
         style="fill:#231f20;fill-opacity:1;fill-rule:nonzero;stroke:none;stroke-width:1.33333325"
         id="path40-3"
         inkscape:connector-curvature="0" />
      <path
         d="M 321.37709,7.106871 V 4.8133506 c 0,-0.2126292 -0.0446,-0.3813706 -0.13015,-0.5054674 -0.0855,-0.1240968 -0.24819,-0.1861451 -0.48503,-0.1861451 -0.13242,0 -0.25122,0.032538 -0.34884,0.097613 -0.0976,0.062048 -0.17706,0.1445273 -0.23911,0.2451668 -0.059,0.1006394 -0.10669,0.2096025 -0.1362,0.3306725 -0.0265,0.1218267 -0.0409,0.23987 -0.0409,0.3548865 V 7.106871 H 319.104 V 1.9492877 h 0.8929 V 3.785012 c 0.10896,-0.1566343 0.25651,-0.278461 0.44341,-0.36094 0.18615,-0.082479 0.37532,-0.1240968 0.56979,-0.1240968 0.20128,0 0.37834,0.032538 0.53271,0.1006395 0.15663,0.065075 0.28603,0.1596611 0.39272,0.2777044 0.10972,0.1180433 0.18917,0.2603005 0.24819,0.4229884 0.056,0.1589044 0.0863,0.336726 0.0863,0.5289247 V 7.106871 h -0.8929"
         style="fill:#231f20;fill-opacity:1;fill-rule:nonzero;stroke:none;stroke-width:1.33333325"
         id="path42-6"
         inkscape:connector-curvature="0" />
      <path
         d="m 326.3281,5.2772002 c -0.006,0.035564 -0.009,0.065075 -0.009,0.094586 v 0.1566344 h -2.48572 c 0,0.1422573 0.0235,0.2777044 0.0681,0.4078546 0.0439,0.1271236 0.11199,0.2368433 0.20355,0.322349 0.0681,0.062048 0.14226,0.1150165 0.23079,0.1596611 0.0885,0.044645 0.19523,0.068102 0.31933,0.068102 0.13015,0 0.23608,-0.012107 0.31932,-0.038591 0.0825,-0.026484 0.15663,-0.074155 0.22473,-0.1392305 0.0855,-0.085506 0.14453,-0.191442 0.17707,-0.3155388 h 0.85733 c -0.009,0.108963 -0.0477,0.2300331 -0.10972,0.3601834 -0.0651,0.133177 -0.13318,0.2391133 -0.20355,0.3253757 -0.15664,0.1861451 -0.34581,0.3193222 -0.56449,0.4018011 -0.21868,0.079452 -0.44947,0.1210701 -0.68632,0.1210701 -0.25651,0 -0.48125,-0.041618 -0.6674,-0.1271236 -0.18917,-0.082479 -0.35791,-0.1921986 -0.50546,-0.3306725 -0.18388,-0.1808484 -0.32538,-0.3995311 -0.42602,-0.6507514 -0.0976,-0.2512203 -0.14453,-0.5319515 -0.14453,-0.8361399 0,-0.2988916 0.0439,-0.576596 0.13242,-0.8308431 0.0863,-0.2572738 0.22171,-0.4729298 0.40256,-0.6560482 0.13848,-0.1415006 0.30722,-0.2572738 0.50547,-0.3427795 0.19749,-0.085506 0.42223,-0.1271236 0.68253,-0.1271236 0.27468,0 0.53195,0.055995 0.77182,0.1687414 0.23609,0.1119898 0.43132,0.2837579 0.58492,0.5168177 0.13621,0.2043056 0.22474,0.4139081 0.26333,0.6235106 0.0378,0.213386 0.059,0.4381222 0.059,0.6681553 z m -0.89592,-0.3987745 c -0.003,-0.2724075 -0.0795,-0.4880635 -0.22776,-0.6507514 -0.062,-0.064318 -0.13847,-0.1180432 -0.23003,-0.1566343 -0.0946,-0.037834 -0.20431,-0.055995 -0.33446,-0.055995 -0.13545,0 -0.25954,0.023457 -0.36321,0.077182 -0.10366,0.052968 -0.18917,0.1210701 -0.25727,0.2065758 -0.0681,0.083236 -0.11502,0.1687413 -0.14453,0.2572738 -0.0272,0.091559 -0.0446,0.1982522 -0.0507,0.3223489 h 1.60796"
         style="fill:#231f20;fill-opacity:1;fill-rule:nonzero;stroke:none;stroke-width:1.33333325"
         id="path44-0"
         inkscape:connector-curvature="0" />
      <path
         d="m 329.18611,4.2223775 c -0.10896,-0.024214 -0.21263,-0.035564 -0.30721,-0.035564 -0.31327,0 -0.55314,0.097613 -0.71507,0.2981349 -0.16269,0.201279 -0.2429,0.4494725 -0.2429,0.7513909 v 1.870532 h -0.90122 V 3.3915344 h 0.75972 l 0.0764,0.5584356 c 0.0863,-0.215656 0.22777,-0.3692636 0.42602,-0.4638496 0.19825,-0.094586 0.40483,-0.1445274 0.62654,-0.1445274 0.0885,0 0.18312,0.00832 0.2777,0.023457 v 0.8573271"
         style="fill:#231f20;fill-opacity:1;fill-rule:nonzero;stroke:none;stroke-width:1.33333325"
         id="path46-6"
         inkscape:connector-curvature="0" />
      <path
         d="m 331.08691,7.1008175 c -0.0916,0.018161 -0.15663,0.032538 -0.19825,0.038591 -0.0386,0.00908 -0.10367,0.012107 -0.19523,0.012107 -0.30419,0 -0.54935,-0.080209 -0.7355,-0.2368433 C 329.77179,6.758038 329.6772,6.5037909 329.6772,6.1496611 V 1.9432342 h 0.90122 v 4.0581161 c 0,0.1097197 0.0235,0.1952254 0.0651,0.2603005 0.0416,0.065075 0.1415,0.094586 0.29284,0.094586 0.0378,0 0.0651,0 0.0855,-0.00303 0.0204,-0.00303 0.0416,-0.00303 0.0651,-0.00303 V 7.100811"
         style="fill:#231f20;fill-opacity:1;fill-rule:nonzero;stroke:none;stroke-width:1.33333325"
         id="path48-2"
         inkscape:connector-curvature="0" />
      <path
         d="m 334.9498,7.0652532 c -0.0764,0.032538 -0.13847,0.059778 -0.19447,0.074155 -0.0568,0.01816 -0.1362,0.026484 -0.24895,0.026484 -0.19447,0 -0.34278,-0.052968 -0.44871,-0.1596611 -0.10367,-0.1029095 -0.16572,-0.2247362 -0.17783,-0.3632101 -0.0855,0.1536076 -0.23003,0.2837579 -0.42828,0.392721 -0.20128,0.1097197 -0.43434,0.1657146 -0.70069,0.1657146 -0.22474,0 -0.41996,-0.032538 -0.58492,-0.097613 -0.16874,-0.065075 -0.30797,-0.1505808 -0.41996,-0.2572738 -0.11275,-0.1059362 -0.19523,-0.230033 -0.25425,-0.3722903 -0.056,-0.1384739 -0.0855,-0.2867846 -0.0855,-0.4373655 0,-0.1770649 0.0325,-0.3336993 0.0976,-0.4729298 0.0651,-0.1384739 0.1536,-0.2572738 0.26862,-0.3579133 0.11275,-0.099883 0.24819,-0.1770649 0.39877,-0.230033 0.15134,-0.055995 0.3163,-0.088532 0.49412,-0.1036663 L 333.75877,4.79292 V 4.565157 c 0,-0.1778216 -0.0416,-0.3193222 -0.12712,-0.4260151 -0.0825,-0.1059363 -0.25122,-0.1596611 -0.50244,-0.1596611 -0.2096,0 -0.37229,0.044644 -0.49033,0.133177 -0.11578,0.091559 -0.17782,0.2217095 -0.18917,0.3934776 h -0.86339 c 0.0151,-0.2073324 0.062,-0.3904508 0.14453,-0.5410317 0.0832,-0.1536076 0.19523,-0.2777044 0.33446,-0.3753171 0.13847,-0.097613 0.29813,-0.1717681 0.47898,-0.2186827 0.18009,-0.047671 0.37532,-0.071129 0.58492,-0.071129 0.31932,0 0.60308,0.055995 0.8543,0.1687414 0.24819,0.1119898 0.42829,0.3072152 0.53801,0.5879463 0.0499,0.1180433 0.0764,0.2421401 0.0885,0.3722904 0.0151,0.1271235 0.0204,0.254247 0.0204,0.3783438 v 1.3771716 c 0,0.086262 0.0151,0.1483108 0.0446,0.1838751 0.0325,0.034808 0.0855,0.052968 0.16269,0.052968 0.0356,0 0.0651,-0.00303 0.0764,-0.00605 0.0151,0 0.0272,-0.00303 0.0356,-0.00908 z m -1.19103,-1.6079614 -0.94585,0.071129 c -0.13621,0.00908 -0.26031,0.055995 -0.36927,0.1362038 -0.10972,0.079452 -0.16571,0.1982521 -0.16571,0.348833 0,0.1445273 0.053,0.2572738 0.16268,0.3397528 0.1067,0.082479 0.22777,0.1271235 0.36624,0.1271235 0.28073,0 0.5085,-0.074155 0.68632,-0.2186828 0.17706,-0.1445273 0.26559,-0.3579132 0.26559,-0.6325909 V 5.4572918"
         style="fill:#231f20;fill-opacity:1;fill-rule:nonzero;stroke:none;stroke-width:1.33333325"
         id="path50-6"
         inkscape:connector-curvature="0" />
      <path
         d="M 337.85851,7.106871 V 4.8277277 c 0,-0.2186828 -0.0416,-0.3896942 -0.12712,-0.513791 -0.0855,-0.1240968 -0.2482,-0.1861451 -0.48731,-0.1861451 -0.15664,0 -0.28679,0.043888 -0.39045,0.1324203 -0.1067,0.089289 -0.18917,0.2012789 -0.25122,0.3405095 -0.062,0.1384738 -0.0976,0.2981349 -0.10972,0.4812533 -0.008,0.1838751 -0.0113,0.3548866 -0.0113,0.5115209 V 7.106871 h -0.89592 V 3.3915344 h 0.75063 l 0.0651,0.4789833 c 0.10972,-0.1952254 0.26635,-0.3397527 0.46687,-0.4313119 0.20431,-0.092316 0.41391,-0.1392306 0.6273,-0.1392306 0.20052,0 0.37834,0.032538 0.53195,0.1006395 0.15663,0.065075 0.28678,0.1566343 0.39272,0.2746776 0.10669,0.1150165 0.18917,0.2572738 0.24517,0.4199617 0.0598,0.1649579 0.0863,0.3427795 0.0863,0.5349782 V 7.106871 h -0.89289"
         style="fill:#231f20;fill-opacity:1;fill-rule:nonzero;stroke:none;stroke-width:1.33333325"
         id="path52-1"
         inkscape:connector-curvature="0" />
      <path
         d="m 342.07326,7.106871 -0.056,-0.4048279 c -0.10896,0.1717681 -0.2603,0.2958649 -0.44947,0.3722903 -0.19144,0.080209 -0.38969,0.1180433 -0.594,0.1180433 -0.18614,0 -0.35413,-0.026484 -0.50849,-0.085506 -0.15058,-0.055995 -0.28376,-0.133177 -0.39878,-0.227763 -0.22473,-0.1800917 -0.38742,-0.4078547 -0.49638,-0.6825323 -0.1067,-0.2746776 -0.15966,-0.5849196 -0.15966,-0.9398061 0,-0.7392839 0.2217,-1.2886391 0.66512,-1.6586594 0.11199,-0.094586 0.24517,-0.1679847 0.39575,-0.2217095 0.15058,-0.049941 0.31932,-0.076426 0.5085,-0.076426 0.23911,0 0.44039,0.035564 0.6061,0.1036662 0.16269,0.067345 0.28679,0.1505809 0.36624,0.2451669 V 1.9492877 h 0.89592 V 7.106871 Z m -0.0764,-1.8652352 c 0,-0.1324203 -0.0121,-0.2686241 -0.0325,-0.4108814 -0.0204,-0.1384738 -0.062,-0.2686241 -0.1241,-0.3836406 -0.062,-0.1188 -0.14831,-0.213386 -0.25727,-0.2867847 -0.10972,-0.074155 -0.25425,-0.1097197 -0.42829,-0.1097197 -0.13923,0 -0.25727,0.026484 -0.35489,0.085506 -0.0976,0.056752 -0.18009,0.1240968 -0.24819,0.2073325 -0.0946,0.1240967 -0.15663,0.2625706 -0.18917,0.4199616 -0.0295,0.1589044 -0.0446,0.3185655 -0.0446,0.4782266 0,0.1626879 0.0151,0.3253757 0.0446,0.4850368 0.0325,0.1596612 0.0946,0.3011617 0.18917,0.4229885 0.0681,0.082479 0.15058,0.1505808 0.24819,0.2065757 0.0976,0.059022 0.21566,0.088533 0.35489,0.088533 0.17404,0 0.31857,-0.038591 0.42829,-0.1119898 0.10896,-0.074155 0.19522,-0.1687414 0.25727,-0.2867846 0.062,-0.1157733 0.10367,-0.2451669 0.1241,-0.3874241 0.0204,-0.1445274 0.0325,-0.2807312 0.0325,-0.416935"
         style="fill:#231f20;fill-opacity:1;fill-rule:nonzero;stroke:none;stroke-width:1.33333325"
         id="path54-8"
         inkscape:connector-curvature="0" />
      <path
         d="m 346.70494,5.9574624 c 0,0.1800917 -0.0295,0.3397528 -0.0885,0.4729298 -0.062,0.1324203 -0.13847,0.2451668 -0.23306,0.3427795 -0.15361,0.1505809 -0.33748,0.2603006 -0.55616,0.3276458 -0.21869,0.065075 -0.4578,0.1006395 -0.71507,0.1006395 -0.23912,0 -0.46083,-0.035564 -0.66513,-0.1036663 -0.20355,-0.070372 -0.3844,-0.1770649 -0.53498,-0.324619 -0.10896,-0.1066929 -0.20355,-0.2307897 -0.28073,-0.3783438 -0.0742,-0.1483108 -0.11199,-0.310242 -0.11199,-0.4880636 h 0.83311 c 0,0.083236 0.0204,0.1626879 0.059,0.2428968 0.0386,0.082479 0.0855,0.1475541 0.14226,0.1944687 0.0704,0.056752 0.15361,0.097613 0.23911,0.1240968 0.0885,0.027241 0.19826,0.038591 0.32538,0.038591 0.0764,0 0.15966,-0.00605 0.24819,-0.017404 0.0885,-0.012107 0.16875,-0.032538 0.24517,-0.068102 0.0772,-0.032538 0.13923,-0.080209 0.18917,-0.1422572 0.0507,-0.062048 0.0772,-0.1415006 0.0772,-0.2421401 0,-0.108963 -0.0356,-0.1982522 -0.10063,-0.2655974 -0.0681,-0.065075 -0.15967,-0.1097197 -0.27166,-0.1271235 -0.16874,-0.024214 -0.3405,-0.044645 -0.51454,-0.062048 -0.17782,-0.015134 -0.34884,-0.044645 -0.51455,-0.083236 -0.13015,-0.026484 -0.24517,-0.073399 -0.34581,-0.1362038 -0.10366,-0.059022 -0.1922,-0.1354471 -0.26862,-0.2239796 -0.0772,-0.086262 -0.1362,-0.1861452 -0.17782,-0.2928381 -0.0378,-0.106693 -0.059,-0.2186828 -0.059,-0.3397528 0,-0.1891719 0.0356,-0.3518598 0.10669,-0.4880636 0.0734,-0.1362037 0.16269,-0.2512203 0.27165,-0.3458062 0.13923,-0.1210701 0.30192,-0.2126293 0.49336,-0.2746777 0.1922,-0.065075 0.40256,-0.097613 0.63562,-0.097613 0.22473,0 0.44039,0.035564 0.64772,0.106693 0.20658,0.070372 0.37835,0.1800917 0.51682,0.3276458 0.10064,0.1097197 0.18085,0.2307897 0.23987,0.36094 0.059,0.1324203 0.0885,0.2655974 0.0885,0.4048279 h -0.84824 c 0,-0.071129 -0.0151,-0.1362038 -0.0446,-0.1921987 -0.0295,-0.059022 -0.0651,-0.1097197 -0.10594,-0.1566343 -0.0537,-0.052968 -0.12409,-0.094586 -0.21035,-0.1271236 -0.0885,-0.029511 -0.1801,-0.044644 -0.27771,-0.044644 -0.0651,0 -0.13015,0 -0.1922,0.00605 -0.062,0.00605 -0.12712,0.021187 -0.1922,0.050698 -0.0825,0.032538 -0.14755,0.082479 -0.20355,0.1505809 -0.056,0.065075 -0.0832,0.1475541 -0.0832,0.2421401 0,0.133177 0.0477,0.2247362 0.14226,0.2746776 0.0916,0.050698 0.18917,0.083236 0.28678,0.097613 0.0855,0.00908 0.15664,0.01816 0.21566,0.024214 0.056,0.0053 0.11501,0.014377 0.17177,0.020431 0.056,0.00908 0.11501,0.014377 0.17706,0.026484 0.062,0.00908 0.13923,0.020431 0.23079,0.035564 0.29511,0.046915 0.538,0.1596611 0.72718,0.3397527 0.19144,0.1778216 0.28602,0.4139082 0.28602,0.7097731"
         style="fill:#231f20;fill-opacity:1;fill-rule:nonzero;stroke:none;stroke-width:1.33333325"
         id="path56-7"
         inkscape:connector-curvature="0" />
    </g>
  </g>
</svg>
